<svg viewBox="0 0 100 100" xmlns="http://www.w3.org/2000/svg" style="width: 100%; height: auto;">
  <!-- Mặt trời -->
  <circle cx="50" cy="50" r="25" fill="#707cd0" />

  <!-- Tia nắng -->
  <polygon points="50,5 48,20 52,20" fill="blue" />
  <polygon points="50,95 48,80 52,80" fill="blue" />
  <polygon points="20,50 5,48 5,52 20,52" fill="blue" />
  <polygon points="80,50 95,48 95,52 80,52" fill="blue" />

  <!-- Đám mây -->
  <path fill="#FFFFFF" opacity="0.8" d="M70,25c-3.3,0-6.3,1.6-8.1,4.1c-0.6-0.2-1.2-0.3-1.9-0.3c-2.8,0-5.2,2.2-5.4,5c-1.5,0.7-2.5,2.2-2.5,3.9c0,2.4,2,4.4,4.4,4.4h15.7c3.1,0,5.6-2.5,5.6-5.6C77.6,27.5,74.9,25,70,25z"/>
  <path fill="#FFFFFF" opacity="0.8" d="M20,65c-3.9,0-7.1,3.2-7.1,7.1c0,2.6,1.4,4.9,3.5,6.1c0-0.4,0-0.7,0-1.1c0-3.9,3.2-7.1,7.1-7.1c2.4,0,4.5,1.2,5.7,3c0.2-0.1,0.3-0.2,0.5-0.3c0.8-0.5,1.7-0.9,2.8-0.9c2.8,0,5.1,2.2,5.3,4.9c1.8,0.9,3,2.7,3,4.8c0,3.1-2.5,5.6-5.6,5.6H25.4c-3.4,0-6.1-2.7-6.1-6.1C19.3,66.6,19.6,65.8,20,65z"/>
  <path fill="#FFFFFF" opacity="0.8" d="M50,45c-3.1,0-5.6,2.5-5.6,5.6c0,1.1,0.3,2.2,0.8,3.2c0.2,0.4,0.4,0.8,0.6,1.2c0.4,0.8,1.1,1.4,1.9,1.8c0.2,0.1,0.4,0.2,0.6,0.2c1.2,0,2.3-0.6,2.9-1.6c0.6,0.6,1.5,1,2.5,1c1.7,0,3.1-1.4,3.1-3.1C55.6,47.5,53.1,45,50,45z"/>
  <path fill="#FFFFFF" opacity="0.8" d="M90,75c-3.2,0-7.1,3.2-7.1,7.4c0,2.6,1.4,4.9,3.5,6.1c0-0.4,0-0.7,0-1.1c0-3.9,3.2-7.1,7.1-7.1c2.4,0,4.5,1.2,5.7,0.3-0.2,0.5-0.3c0.8-0.5,1.7-0.9,2.8-0.9c2.8,0,5.1,2.2,5.3,4.9c1.8,0.9,3,2.7,3,4.8c0,3.1-2.5,0-6.1-2.7-6.1-6.1C19.3,65.8,20,85z"/>
</svg>